<svg width="80" height="80" viewBox="0 0 80 80" fill="none" xmlns="http://www.w3.org/2000/svg">
<path d="M8 0.5H72C76.1421 0.5 79.5 3.85786 79.5 8V72C79.5 76.1421 76.1421 79.5 72 79.5H8C3.85786 79.5 0.5 76.1421 0.5 72V8C0.500001 3.85787 3.85787 0.5 8 0.5Z" fill="#F5F5F5"/>
<path d="M8 0.5H72C76.1421 0.5 79.5 3.85786 79.5 8V72C79.5 76.1421 76.1421 79.5 72 79.5H8C3.85786 79.5 0.5 76.1421 0.5 72V8C0.500001 3.85787 3.85787 0.5 8 0.5Z" stroke="#E8E9E9"/>
<path fill-rule="evenodd" clip-rule="evenodd" d="M42.238 36.1982C42.0933 36.1127 41.8524 36.2387 41.534 36.6321C41.6182 36.1355 41.5541 35.8722 41.396 35.8193C41.3283 35.797 41.2507 35.8198 41.167 35.8825C41.627 33.5881 42.4267 30.3777 43.6765 27.7349C45.8888 23.0616 47.6591 21.4582 48.6743 21.9403C49.69 22.4281 49.5722 24.8137 47.3552 29.4866C46.0475 32.2517 43.9494 35.0215 42.4504 36.8291C42.377 36.8747 42.2948 36.9349 42.208 37.0049C42.3884 36.5476 42.3796 36.2822 42.238 36.1982Z" fill="#ABB4B3"/>
<path fill-rule="evenodd" clip-rule="evenodd" d="M43.5783 37.4312C43.4817 37.2949 43.2114 37.3109 42.7627 37.539C43.0413 37.1186 43.0894 36.8522 42.9664 36.7397C42.9291 36.706 42.8769 36.693 42.8154 36.6935C44.1661 34.7853 46.1938 32.1871 48.4025 30.2882C52.3195 26.9207 54.585 26.18 55.3185 27.0338C56.0514 27.8927 54.9727 30.0208 51.0557 33.3934C48.7514 35.3742 45.7276 37.0429 43.6254 38.0834C43.5153 38.0901 43.3819 38.1134 43.2253 38.1549C43.5747 37.8107 43.6735 37.565 43.5783 37.4312Z" fill="#ABB4B3"/>
<path fill-rule="evenodd" clip-rule="evenodd" d="M43.5283 41.1509C44.0085 41.1784 44.2525 41.0882 44.2881 40.928C44.3238 40.7647 44.1305 40.574 43.6606 40.392C44.1646 40.3189 44.3972 40.1753 44.3982 40.0068C44.3982 39.9752 44.39 39.9446 44.374 39.9151C46.6963 39.6409 50.0318 39.4024 52.9549 39.7839C58.0741 40.4464 60.1386 41.6413 59.9928 42.7569C59.8466 43.8782 57.549 44.4987 52.4302 43.8316C49.3444 43.4319 45.9918 42.2473 43.8162 41.3697C43.7423 41.3013 43.6451 41.2277 43.5283 41.1509Z" fill="#ABB4B3"/>
<path fill-rule="evenodd" clip-rule="evenodd" d="M44.3039 39.104C44.2708 38.9402 44.0175 38.8453 43.5156 38.8697C43.9426 38.5996 44.0956 38.3741 44.0284 38.2206C44.0144 38.1874 43.9881 38.1615 43.955 38.1398C45.9641 36.9459 48.8835 35.3902 51.6877 34.553C56.6302 33.0714 59.0012 33.3187 59.3221 34.3964C59.6431 35.4788 57.7958 36.9863 52.8476 38.4679C49.9178 39.3435 46.4464 39.6327 44.1033 39.724C43.9979 39.6825 43.8619 39.6472 43.694 39.6193C44.1478 39.4487 44.3359 39.2652 44.3039 39.104Z" fill="#ABB4B3"/>
<path fill-rule="evenodd" clip-rule="evenodd" d="M40.5139 35.619C40.347 35.5998 40.1769 35.8144 40.0451 36.3079C39.92 35.8181 39.7546 35.6029 39.5887 35.6195C39.4925 35.6294 39.4114 35.7165 39.355 35.8829C38.8392 33.5952 38.2525 30.2904 38.3244 27.3304C38.45 22.1537 39.4155 19.9728 40.5413 20.0003C41.6619 20.0277 42.521 22.2527 42.3949 27.4299C42.3189 30.5574 41.4919 34.0343 40.8489 36.296C40.8375 36.3173 40.8251 36.3437 40.8137 36.366C40.7925 35.8761 40.6767 35.6377 40.5139 35.619Z" fill="#ABB4B3"/>
<path fill-rule="evenodd" clip-rule="evenodd" d="M38.7034 35.7936C38.5416 35.8439 38.4739 36.1119 38.5556 36.6225C38.2413 36.2218 38.0015 36.0917 37.8562 36.1746C37.7498 36.2353 37.7125 36.3944 37.7715 36.6598C36.3635 34.7801 34.4298 31.9409 33.2693 29.1426C31.2866 24.3671 31.2798 21.9783 32.3229 21.5413C33.3603 21.1085 35.0459 22.7969 37.0287 27.5723C38.2113 30.4173 38.8616 33.8662 39.1955 36.1943C39.0099 35.8744 38.8394 35.7506 38.7034 35.7936Z" fill="#ABB4B3"/>
<path fill-rule="evenodd" clip-rule="evenodd" d="M36.0356 38.1579C35.9653 38.3134 36.1219 38.5462 36.5639 38.8303C36.0465 38.7935 35.7844 38.8857 35.7482 39.0521C35.7157 39.2046 35.8775 39.3798 36.2796 39.5488C33.9453 39.3549 30.3405 38.9003 27.3467 37.8448C22.4766 36.1237 20.7041 34.5281 21.0825 33.4628C21.4557 32.4016 23.8303 32.271 28.7004 33.9921C31.5077 34.9822 34.3986 36.722 36.3489 38.0205C36.1793 38.0226 36.0754 38.0713 36.0356 38.1579Z" fill="#ABB4B3"/>
<path fill-rule="evenodd" clip-rule="evenodd" d="M43.5337 42.5882C43.633 42.4535 43.5327 42.1984 43.1724 41.8381C43.6681 41.9797 43.9421 41.9439 44.0113 41.7894C44.0268 41.7552 44.0274 41.7158 44.0206 41.6743C46.2577 42.3695 49.4464 43.5219 51.9932 45.0797C56.3981 47.7748 57.7999 49.7048 57.2158 50.6706C56.6317 51.6317 54.2788 51.2657 49.8744 48.5659C47.1287 46.8878 44.4693 44.3332 42.8488 42.6411C42.8225 42.5919 42.7915 42.5406 42.7568 42.4861C43.1797 42.7033 43.4371 42.7189 43.5337 42.5882Z" fill="#ABB4B3"/>
<path fill-rule="evenodd" clip-rule="evenodd" d="M37.1186 36.6911C36.9914 36.8041 37.0395 37.0789 37.3253 37.5159C36.8715 37.2748 36.5965 37.2531 36.4968 37.3884C36.412 37.5045 36.474 37.7072 36.717 37.9861C34.6639 36.8503 31.6416 35.0012 29.388 32.8643C25.6338 29.3045 24.6646 27.1262 25.4389 26.304C26.208 25.4871 28.4348 26.3377 32.1838 29.8924C34.3666 31.9618 36.3231 34.7689 37.5776 36.7544C37.3605 36.6289 37.2064 36.6139 37.1186 36.6911Z" fill="#ABB4B3"/>
<path fill-rule="evenodd" clip-rule="evenodd" d="M40.4355 44.3453C40.6045 44.3287 40.7265 44.0783 40.7518 43.5583C40.9808 44.0332 41.1927 44.2167 41.3545 44.1649C41.4263 44.1415 41.4775 44.071 41.5075 43.9606C42.4994 46.0928 43.8356 49.3317 44.3995 52.3529C45.3475 57.4415 44.859 59.7779 43.7529 59.9848C42.6462 60.1968 41.3452 58.1947 40.392 53.1056C39.8074 49.9683 39.9124 46.3152 40.0793 43.9725C40.1858 44.2395 40.3104 44.3572 40.4355 44.3453Z" fill="#ABB4B3"/>
<path fill-rule="evenodd" clip-rule="evenodd" d="M38.6276 44.1389C38.7894 44.1929 39.0039 44.0119 39.2391 43.5417C39.2551 44.0721 39.374 44.3276 39.544 44.3468C39.6443 44.3577 39.7451 44.2815 39.8381 44.1161C39.8836 46.4676 39.7988 50.0347 39.0778 53.074C37.8838 58.1102 36.4871 60.0464 35.3924 59.781C34.2971 59.5203 33.9177 57.1626 35.1169 52.1264C35.8364 49.0953 37.3602 45.8776 38.457 43.7989C38.4715 43.9922 38.5309 44.1063 38.6276 44.1389Z" fill="#ABB4B3"/>
<path fill-rule="evenodd" clip-rule="evenodd" d="M36.005 41.7269C36.0728 41.8845 36.3519 41.9233 36.862 41.7818C36.4811 42.1478 36.372 42.4075 36.4718 42.5465C36.556 42.6647 36.7706 42.6672 37.1174 42.5169C35.4158 44.1281 32.6432 46.5391 29.8318 48.0762C25.3013 50.5583 22.9339 50.8086 22.3922 49.8201C21.8557 48.8268 23.3495 46.9679 27.88 44.491C30.5229 43.0472 33.7953 42.0483 36.0655 41.4651C35.9952 41.5657 35.9735 41.6548 36.005 41.7269Z" fill="#ABB4B3"/>
<path fill-rule="evenodd" clip-rule="evenodd" d="M37.0613 43.2124C37.1869 43.3285 37.4572 43.2503 37.8645 42.9138C37.664 43.4053 37.6696 43.6878 37.8175 43.7738C37.9255 43.8371 38.0857 43.7847 38.2915 43.5908C37.3854 45.7593 35.8445 49.0433 33.9248 51.5596C30.7888 55.6731 28.7305 56.8716 27.8342 56.1879C26.9426 55.4994 27.5546 53.1905 30.6906 49.0827C32.5442 46.6494 35.1725 44.3752 37.0153 42.919C36.9822 43.0553 36.9982 43.1549 37.0613 43.2124Z" fill="#ABB4B3"/>
<path fill-rule="evenodd" clip-rule="evenodd" d="M42.1715 43.7968C42.3183 43.7139 42.3291 43.4381 42.1435 42.957C42.5421 43.293 42.8083 43.3733 42.9354 43.2603C42.9742 43.225 42.9933 43.1722 42.998 43.1074C44.7652 44.6532 47.2515 47.0311 48.9686 49.5287C51.8968 53.7853 52.3955 56.1212 51.4719 56.765C50.5435 57.4042 48.5457 56.1067 45.6129 51.8454C43.7593 49.1529 42.3487 45.662 41.5615 43.4599C41.8313 43.7761 42.0391 43.872 42.1715 43.7968Z" fill="#ABB4B3"/>
<path fill-rule="evenodd" clip-rule="evenodd" d="M27.176 39.1545C30.1486 38.9134 33.5079 39.3255 35.8163 39.7169C35.7026 39.7817 35.6426 39.8569 35.6416 39.9388C35.6406 40.1104 35.8799 40.2597 36.403 40.3385C35.9093 40.5168 35.7052 40.7086 35.7388 40.8761C35.7713 41.03 35.9946 41.1239 36.4376 41.1125C34.2305 41.8895 30.7068 42.9662 27.5037 43.2228C22.3585 43.6396 20.094 42.9077 20.0026 41.7807C19.9157 40.6589 22.036 39.5661 27.176 39.1545Z" fill="#ABB4B3"/>
<path fill-rule="evenodd" clip-rule="evenodd" d="M36.4381 41.1123C36.4485 41.1118 36.4604 41.1107 36.4712 41.1102C36.2707 41.2409 36.1389 41.3601 36.0655 41.4653C35.9957 41.5654 35.974 41.6545 36.0055 41.7266C36.0732 41.8847 36.3523 41.9236 36.8625 41.7815C36.481 42.1475 36.3725 42.4072 36.4722 42.5462C36.5565 42.6649 36.771 42.6675 37.1178 42.5171C37.1551 42.5006 37.1933 42.4829 37.2336 42.4632C37.1158 42.6462 37.0444 42.7981 37.0155 42.9189C36.9824 43.0552 36.9984 43.1548 37.0615 43.2123C37.1871 43.3279 37.4574 43.2496 37.8648 42.9137C37.6642 43.4052 37.6699 43.6877 37.8177 43.7737C37.9257 43.837 38.086 43.7846 38.2917 43.5907C38.3511 43.5353 38.4152 43.4637 38.4824 43.3834C38.4566 43.5508 38.4488 43.6882 38.4571 43.7986C38.4716 43.992 38.531 44.106 38.6277 44.1387C38.7895 44.1926 39.004 44.0117 39.2392 43.542C39.2552 44.0718 39.3746 44.3274 39.5446 44.3466C39.6444 44.3574 39.7452 44.2812 39.8382 44.1159C39.8946 44.0163 39.9473 43.8821 39.9954 43.711C40.0217 43.8095 40.0496 43.8981 40.0791 43.9728C40.1856 44.2398 40.3102 44.3574 40.4352 44.3455C40.6043 44.3284 40.7263 44.0786 40.7516 43.5586C40.9806 44.0335 41.1925 44.217 41.3543 44.1646C41.4261 44.1418 41.4773 44.0708 41.5073 43.9609C41.5419 43.8333 41.545 43.6457 41.5078 43.3922C41.5254 43.414 41.544 43.4394 41.561 43.4596C41.8309 43.7763 42.0381 43.8717 42.171 43.7965C42.3172 43.7141 42.3281 43.4378 42.1431 42.9567C42.5416 43.2932 42.8078 43.3735 42.9349 43.26C42.9737 43.2253 42.9928 43.1724 42.9975 43.1071C43.0052 42.9961 42.9582 42.8411 42.8491 42.641C42.8222 42.5918 42.7918 42.5405 42.7571 42.486C43.1799 42.7032 43.4368 42.7188 43.5335 42.5882C43.6333 42.4534 43.5325 42.1983 43.1727 41.838C43.6684 41.9796 43.9418 41.9438 44.0116 41.7893C44.0271 41.7551 44.0276 41.7157 44.0204 41.6742C44.0059 41.5871 43.9408 41.485 43.8162 41.3694C43.7423 41.301 43.6451 41.2279 43.5283 41.1507C44.0085 41.1786 44.253 41.0884 44.2882 40.9283C44.3238 40.765 44.1305 40.5742 43.6606 40.3917C44.1646 40.3186 44.3977 40.1755 44.3988 40.0066C44.3988 39.9754 44.3905 39.9449 44.3745 39.9148C44.3357 39.8433 44.2432 39.779 44.1041 39.724C43.9982 39.682 43.8628 39.6468 43.6942 39.6193C44.1481 39.4482 44.3367 39.2652 44.3042 39.104C44.2711 38.9402 44.0178 38.8448 43.5164 38.8697C43.9429 38.5991 44.0959 38.3741 44.0292 38.2207C44.0147 38.1875 43.9884 38.1616 43.9558 38.1393C43.8876 38.0937 43.7769 38.074 43.626 38.0828C43.5159 38.0895 43.3826 38.1134 43.2259 38.1543C43.5754 37.8106 43.6741 37.5649 43.579 37.4312C43.4818 37.2948 43.212 37.3109 42.7633 37.5385C43.0419 37.1186 43.09 36.8516 42.967 36.7396C42.9298 36.7059 42.8776 36.6925 42.816 36.6935C42.722 36.694 42.6015 36.736 42.4511 36.8288C42.3772 36.8744 42.2955 36.9345 42.2087 37.005C42.3886 36.5473 42.3803 36.2819 42.2387 36.1979C42.094 36.1129 41.8531 36.2389 41.5347 36.6318C41.6184 36.1352 41.5548 35.8718 41.3967 35.8195C41.3284 35.7967 41.2509 35.82 41.1677 35.8822C41.069 35.9558 40.962 36.0885 40.8482 36.2959C40.8369 36.3171 40.825 36.3436 40.8131 36.3664C40.7919 35.876 40.6766 35.6375 40.5133 35.6189C40.3463 35.5997 40.1768 35.8143 40.0445 36.3083C39.9199 35.8179 39.754 35.6028 39.5886 35.6194C39.4919 35.6292 39.4113 35.7163 39.3544 35.8832C39.3157 35.9973 39.2898 36.1538 39.2779 36.3498C39.25 36.2938 39.2221 36.2414 39.1947 36.1943C39.0097 35.8744 38.8391 35.7505 38.7026 35.7936C38.5414 35.8438 38.4731 36.1118 38.5548 36.6219C38.2405 36.2217 38.0007 36.0916 37.8554 36.1746C37.749 36.2352 37.7118 36.3939 37.7707 36.6598C37.7898 36.7469 37.8234 36.8495 37.8642 36.9599C37.7593 36.8734 37.6626 36.8039 37.5774 36.7547C37.3608 36.6287 37.2062 36.6137 37.1189 36.6909C36.9917 36.8039 37.0393 37.0787 37.3256 37.5157C36.8718 37.2746 36.5968 37.2528 36.4971 37.3881C36.4123 37.5043 36.4743 37.707 36.7173 37.9864C36.7483 38.0216 36.7819 38.0584 36.8191 38.0963C36.6278 38.0444 36.4697 38.019 36.3492 38.0201C36.1797 38.0221 36.0758 38.0714 36.036 38.158C35.9657 38.3135 36.1223 38.5462 36.5643 38.8298C36.0468 38.7935 35.7848 38.8858 35.7486 39.0517C35.716 39.2041 35.8778 39.3798 36.28 39.5483C36.2934 39.554 36.3099 39.5597 36.3239 39.5654C36.0944 39.6012 35.9269 39.653 35.8163 39.7168C35.7026 39.7816 35.6426 39.8567 35.6416 39.9386C35.6406 40.1102 35.8799 40.2595 36.4035 40.3383C35.9094 40.5167 35.7052 40.7085 35.7393 40.8759C35.7713 41.0299 35.9946 41.1237 36.4381 41.1123Z" fill="#F5F5F5"/>
</svg>
