<svg width="32" height="32" viewBox="0 0 32 32" fill="none" xmlns="http://www.w3.org/2000/svg">
<path fill-rule="evenodd" clip-rule="evenodd" d="M24.0032 27.2111C25.7864 26.7534 26.8608 24.9367 26.4031 23.1536L25.1978 18.4586C25.106 18.4662 25.0131 18.47 24.9194 18.47C23.0783 18.47 21.586 16.9778 21.586 15.1367V13.2637H19.7136C17.8726 13.2637 16.3803 11.7713 16.3803 9.93038C16.3803 8.08943 17.8726 6.59704 19.7136 6.59704H21.586V4.72465C21.586 4.62773 21.5902 4.53177 21.5982 4.43696L21.365 3.52812C20.9071 1.74499 19.0906 0.670565 17.3074 1.12832L3.04698 4.78919C1.26385 5.24695 0.189424 7.06354 0.647182 8.84667L5.68534 28.4722C6.1431 30.2552 7.9597 31.3298 9.74283 30.8719L24.0032 27.2111ZM24.9194 16.47C24.183 16.47 23.586 15.8731 23.586 15.1367V11.2631H19.7136C18.9772 11.2631 18.3803 10.6661 18.3803 9.92974C18.3803 9.19335 18.9772 8.5964 19.7136 8.5964H23.586V4.72465C23.586 3.98827 24.183 3.39132 24.9194 3.39132C25.6556 3.39132 26.2527 3.98827 26.2527 4.72465V8.5964H30.1256C30.862 8.5964 31.459 9.19335 31.459 9.92974C31.459 10.6661 30.862 11.2631 30.1256 11.2631H26.2527V15.1367C26.2527 15.8731 25.6556 16.47 24.9194 16.47Z" fill="#586968"/>
</svg>
