<svg width="32" height="32" viewBox="0 0 32 32" fill="none" xmlns="http://www.w3.org/2000/svg">
<path d="M23.5 11C23.5 15.1421 20.1421 18.5 16 18.5C11.8579 18.5 8.5 15.1421 8.5 11C8.5 6.85786 11.8579 3.5 16 3.5C20.1421 3.5 23.5 6.85786 23.5 11Z" fill="#586968"/>
<path d="M7.29186 14.4796C5.02704 15.7704 3.5 18.207 3.5 21.0002C3.5 25.1424 6.85786 28.5002 11 28.5002C15.1421 28.5002 18.5 25.1424 18.5 21.0002C18.5 20.6799 18.4799 20.3641 18.4409 20.0544C17.6626 20.2636 16.8444 20.3752 16 20.3752C12.0517 20.3752 8.67352 17.9346 7.29186 14.4796Z" fill="#586968"/>
<path d="M20.2332 19.3674C20.3264 19.8976 20.375 20.4432 20.375 21.0002C20.375 23.6136 19.3057 25.9771 17.5807 27.6774C18.6061 28.2034 19.7684 28.5002 21 28.5002C25.1421 28.5002 28.5 25.1424 28.5 21.0002C28.5 18.207 26.9729 15.7704 24.7081 14.4796C23.8595 16.6016 22.2577 18.341 20.2332 19.3674Z" fill="#586968"/>
</svg>
