<svg width="32" height="32" viewBox="0 0 32 32" fill="none" xmlns="http://www.w3.org/2000/svg">
<path d="M15.9975 3.5L16.145 3.50875L16.2187 3.51875L16.295 3.535L16.4337 3.5775C16.5296 3.61283 16.6207 3.65985 16.705 3.7175L16.835 3.82L17.1537 4.0925C19.6754 6.18696 22.8623 7.31163 26.14 7.26375L26.5675 7.25125C26.847 7.2385 27.1227 7.31988 27.3504 7.48237C27.5782 7.64487 27.7449 7.87907 27.8237 8.1475C28.438 10.237 28.6259 12.4286 28.3765 14.5921C28.127 16.7557 27.4451 18.847 26.3714 20.7418C25.2977 22.6367 23.8541 24.2963 22.1263 25.6222C20.3985 26.9481 18.4219 27.9131 16.3137 28.46C16.108 28.5134 15.892 28.5134 15.6862 28.46C13.578 27.9133 11.6012 26.9483 9.87328 25.6225C8.14536 24.2967 6.70159 22.637 5.62777 20.7422C4.55395 18.8474 3.87199 16.756 3.62242 14.5924C3.37285 12.4288 3.56076 10.2371 4.17499 8.1475C4.25388 7.87907 4.42054 7.64487 4.6483 7.48237C4.87606 7.31988 5.15175 7.2385 5.43124 7.25125C8.85307 7.40767 12.2101 6.28124 14.845 4.0925L15.1737 3.81125L15.2937 3.7175C15.3781 3.65985 15.4692 3.61283 15.565 3.5775L15.705 3.535C15.754 3.52317 15.8037 3.5144 15.8537 3.50875L15.9975 3.5ZM20.635 12.6163C20.5189 12.5 20.381 12.4078 20.2293 12.3449C20.0775 12.282 19.9149 12.2496 19.7506 12.2496C19.5863 12.2496 19.4237 12.282 19.2719 12.3449C19.1202 12.4078 18.9823 12.5 18.8662 12.6163L14.75 16.7312L13.1337 15.1163L13.0162 15.0125C12.765 14.8182 12.4492 14.7269 12.1331 14.757C11.8169 14.7871 11.5241 14.9364 11.3141 15.1747C11.104 15.4129 10.9925 15.7221 11.0022 16.0395C11.0119 16.357 11.1421 16.6588 11.3662 16.8837L13.8662 19.3838L13.9837 19.4875C14.2242 19.6741 14.5246 19.7665 14.8283 19.7474C15.1321 19.7283 15.4185 19.599 15.6337 19.3838L20.6337 14.3837L20.7375 14.2662C20.9241 14.0257 21.0165 13.7254 20.9974 13.4216C20.9782 13.1179 20.8502 12.8315 20.635 12.6163Z" fill="#586968"/>
</svg>
