<svg width="32" height="32" viewBox="0 0 32 32" fill="none" xmlns="http://www.w3.org/2000/svg">
<path fill-rule="evenodd" clip-rule="evenodd" d="M16 0C14.62 0 12.314 0.53 10.144 1.12C7.92401 1.72 5.68601 2.43 4.37001 2.86C3.81979 3.0417 3.33199 3.37493 2.96264 3.8214C2.5933 4.26787 2.35739 4.80948 2.28201 5.384C1.09001 14.338 3.85601 20.974 7.21201 25.364C8.6357 27.2415 10.3325 28.8951 12.246 30.27C13.018 30.816 13.734 31.234 14.342 31.52C14.902 31.784 15.504 32 16 32C16.496 32 17.096 31.784 17.658 31.52C18.3917 31.1651 19.0931 30.7469 19.754 30.27C21.6675 28.8951 23.3643 27.2415 24.788 25.364C28.144 20.974 30.91 14.338 29.718 5.384C29.643 4.80912 29.4072 4.26709 29.0379 3.82024C28.6685 3.37338 28.1805 3.03985 27.63 2.858C25.7195 2.23202 23.7943 1.65185 21.856 1.118C19.686 0.532 17.38 0 16 0ZM20.292 10.292C20.4798 10.1042 20.7345 9.99874 21 9.99874C21.2656 9.99874 21.5202 10.1042 21.708 10.292C21.8958 10.4798 22.0013 10.7344 22.0013 11C22.0013 11.2656 21.8958 11.5202 21.708 11.708L15.708 17.708C15.6151 17.8011 15.5048 17.875 15.3833 17.9254C15.2618 17.9758 15.1315 18.0018 15 18.0018C14.8685 18.0018 14.7382 17.9758 14.6167 17.9254C14.4953 17.875 14.3849 17.8011 14.292 17.708L11.292 14.708C11.199 14.615 11.1253 14.5046 11.075 14.3832C11.0246 14.2617 10.9987 14.1315 10.9987 14C10.9987 13.8685 11.0246 13.7383 11.075 13.6168C11.1253 13.4954 11.199 13.385 11.292 13.292C11.385 13.199 11.4954 13.1253 11.6168 13.075C11.7383 13.0246 11.8685 12.9987 12 12.9987C12.1315 12.9987 12.2617 13.0246 12.3832 13.075C12.5047 13.1253 12.615 13.199 12.708 13.292L15 15.586L20.292 10.292Z" fill="#586968"/>
</svg>
