<svg width="32" height="32" viewBox="0 0 32 32" fill="none" xmlns="http://www.w3.org/2000/svg">
<path d="M16.0005 19.1623L18.7797 20.8554C18.95 20.9619 19.1204 20.9512 19.2908 20.8234C19.4611 20.6957 19.525 20.5253 19.4824 20.3123L18.7477 17.1818L21.2075 15.0415C21.3778 14.8924 21.4257 14.722 21.3512 14.5304C21.2766 14.3387 21.1329 14.2322 20.9199 14.2109L17.6936 13.9554L16.4477 10.9845C16.3625 10.7929 16.2134 10.697 16.0005 10.697C15.7875 10.697 15.6384 10.7929 15.5533 10.9845L14.3074 13.9554L11.0811 14.2109C10.8681 14.2322 10.7243 14.3387 10.6498 14.5304C10.5753 14.722 10.6232 14.8924 10.7936 15.0415L13.2533 17.1818L12.5186 20.3123C12.4759 20.5253 12.5398 20.6957 12.7102 20.8234C12.8806 20.9512 13.0509 20.9619 13.2213 20.8554L16.0005 19.1623ZM11.7199 26.222H7.69495C7.1625 26.222 6.70998 26.0357 6.3373 25.663C5.96461 25.2904 5.77827 24.8378 5.77827 24.3054V20.2804L2.83938 17.3415C2.64771 17.1498 2.50929 16.9369 2.4241 16.7026C2.33892 16.4683 2.29633 16.2341 2.29633 15.9998C2.29633 15.7655 2.33892 15.5313 2.4241 15.297C2.50929 15.0628 2.64771 14.8498 2.83938 14.6582L5.77827 11.7193V7.69427C5.77827 7.16188 5.96461 6.70932 6.3373 6.33663C6.70998 5.96394 7.1625 5.7776 7.69495 5.7776H11.7199L14.6588 2.83871C14.8505 2.64704 15.0687 2.50862 15.3137 2.42343C15.5586 2.33825 15.7982 2.29565 16.0324 2.29565C16.2667 2.29565 16.5009 2.34357 16.7352 2.4394C16.9694 2.53524 17.1825 2.67899 17.3741 2.87065L20.2811 5.7776H24.3061C24.8384 5.7776 25.291 5.96394 25.6637 6.33663C26.0364 6.70932 26.2227 7.16188 26.2227 7.69427V11.7193L29.1616 14.6582C29.3533 14.8498 29.4917 15.0628 29.5769 15.297C29.6621 15.5313 29.7047 15.7655 29.7047 15.9998C29.7047 16.2341 29.6621 16.4683 29.5769 16.7026C29.4917 16.9369 29.3533 17.1498 29.1616 17.3415L26.2227 20.2804V24.3054C26.2227 24.8378 26.0364 25.2904 25.6637 25.663C25.291 26.0357 24.8384 26.222 24.3061 26.222H20.2811L17.3741 29.097C17.1825 29.2674 16.9694 29.4005 16.7352 29.4963C16.5009 29.5922 16.2667 29.6401 16.0324 29.6401C15.7982 29.6401 15.5639 29.5922 15.3297 29.4963C15.0954 29.4005 14.8824 29.2674 14.6908 29.097L11.7199 26.222Z" fill="#586968"/>
</svg>
