<svg width="32" height="32" viewBox="0 0 32 32" fill="none" xmlns="http://www.w3.org/2000/svg">
<path d="M16 13.5C18.7614 13.5 21 11.2614 21 8.5C21 5.73857 18.7614 3.5 16 3.5C13.2386 3.5 11 5.73857 11 8.5C11 11.2614 13.2386 13.5 16 13.5ZM7.875 17.25C9.60089 17.25 11 15.8509 11 14.125C11 12.3991 9.60089 11 7.875 11C6.14911 11 4.75 12.3991 4.75 14.125C4.75 15.8509 6.14911 17.25 7.875 17.25ZM27.25 14.125C27.25 15.8509 25.8509 17.25 24.125 17.25C22.3991 17.25 21 15.8509 21 14.125C21 12.3991 22.3991 11 24.125 11C25.8509 11 27.25 12.3991 27.25 14.125ZM16 14.75C19.4517 14.75 22.25 17.5483 22.25 21V28.5H9.75V21C9.75 17.5483 12.5482 14.75 16 14.75ZM7.25 20.9999C7.25 20.1337 7.37584 19.297 7.61023 18.507L7.3983 18.5255C5.20629 18.763 3.5 20.6197 3.5 22.8749V28.4999H7.25V20.9999ZM28.5 28.4999V22.8749C28.5 20.5472 26.6824 18.6441 24.3897 18.507C24.6241 19.297 24.75 20.1337 24.75 20.9999V28.4999H28.5Z" fill="#586968"/>
</svg>
