<svg width="32" height="32" viewBox="0 0 32 32" fill="none" xmlns="http://www.w3.org/2000/svg">
<g clip-path="url(#clip0_2230_18759)">
<path d="M3.08286e-06 13.0001C-0.00202208 10.0583 0.993766 7.20281 2.82465 4.90023C4.65553 2.59765 7.21324 0.98413 10.0798 0.323324C12.9464 -0.337481 15.9524 -0.00649416 18.6065 1.2622C21.2606 2.53089 23.406 4.66227 24.692 7.30805C26.5535 8.21553 28.1713 9.55459 29.4106 11.2137C30.6499 12.8729 31.4749 14.8041 31.8169 16.8466C32.1589 18.8891 32.008 20.9837 31.3768 22.9561C30.7455 24.9285 29.6522 26.7215 28.1878 28.1859C26.7234 29.6502 24.9304 30.7435 22.9581 31.3748C20.9857 32.0061 18.8911 32.157 16.8486 31.815C14.8061 31.473 12.8749 30.648 11.2157 29.4086C9.55655 28.1693 8.21748 26.5516 7.31 24.6901C5.11799 23.623 3.2702 21.961 1.97761 19.894C0.68503 17.8269 -0.000255206 15.438 3.08286e-06 13.0001ZM10.288 25.7161C11.2428 26.9543 12.4506 27.9748 13.8309 28.7094C15.2112 29.4441 16.7322 29.876 18.2926 29.9764C19.853 30.0769 21.4168 29.8435 22.8799 29.2918C24.343 28.7402 25.6716 27.883 26.7773 26.7773C27.8829 25.6717 28.7401 24.343 29.2918 22.88C29.8434 21.4169 30.0768 19.853 29.9764 18.2926C29.876 16.7323 29.444 15.2112 28.7094 13.8309C27.9747 12.4506 26.9543 11.2428 25.716 10.2881C26.1689 12.4089 26.0839 14.6094 25.4689 16.6891C24.854 18.7687 23.7285 20.6615 22.195 22.195C20.6615 23.7285 18.7687 24.854 16.689 25.469C14.6094 26.084 12.4089 26.1689 10.288 25.7161ZM8.822 23.1781C9.55 23.4794 10.3127 23.6994 11.11 23.8381L8.162 20.8901C8.30067 21.6861 8.52067 22.4487 8.822 23.1781ZM14.05 23.9501C14.8473 23.8746 15.634 23.7123 16.396 23.4661L8.748 15.8201C8.47913 16.5446 8.28088 17.2934 8.156 18.0561L14.05 23.9501ZM18.364 22.6061C18.9587 22.2727 19.5173 21.8887 20.04 21.4541L10.836 12.2521C10.3988 12.7686 10.0061 13.3213 9.662 13.9041L18.364 22.6061ZM21.454 20.0381C21.8873 19.5181 22.2713 18.9601 22.606 18.3641L13.906 9.66005C13.3225 10.004 12.7692 10.3967 12.252 10.8341L21.452 20.0381H21.454ZM23.466 16.3941C23.71 15.6447 23.8713 14.8634 23.95 14.0501L18.056 8.15605C17.2827 8.28405 16.5373 8.48138 15.82 8.74805L23.466 16.3961V16.3941ZM23.838 11.1101C23.7014 10.3257 23.4802 9.55859 23.178 8.82205C22.4415 8.5199 21.6743 8.29861 20.89 8.16205L23.838 11.1101Z" fill="#586968"/>
</g>
<defs>
<clipPath id="clip0_2230_18759">
<rect width="32" height="32" fill="white"/>
</clipPath>
</defs>
</svg>
